<svg xmlns="http://www.w3.org/2000/svg" viewBox="0 0 260.22 260.53"><defs><style>.cls-1{fill:#c6c6c6;}.cls-2{fill:#f6f6f6;}.cls-3{fill:#b2b2b2;}</style></defs><g id="Layer_2" data-name="Layer 2"><g id="Layer_2-2" data-name="Layer 2"><path class="cls-1" d="M260.22,130.11a129.57,129.57,0,0,1-28.78,81.62q-1.94,2.4-4,4.7c-.83.93-1.67,1.86-2.54,2.77-1.79,1.93-3.66,3.8-5.59,5.61-1.13,1.07-2.29,2.12-3.46,3.14a130.11,130.11,0,0,1-176.14-4.24c-1.11-1.08-2.2-2.17-3.28-3.29-.37-.38-.73-.76-1.08-1.15l-.58-.63a130.13,130.13,0,0,1-16.25-21.56c-.32-.53-.64-1.07-.95-1.61A130.16,130.16,0,0,1,32.73,43.82q2.27-2.55,4.65-5a130.1,130.1,0,0,1,222.84,91.26Z"/><path class="cls-2" d="M224.92,79.61V219.2c-1.79,1.93-3.66,3.8-5.59,5.61-1.13,1.07-2.29,2.12-3.46,3.14A130.46,130.46,0,0,1,39.1,224c-1.11-1.08-2.2-2.17-3.28-3.29h0a3.76,3.76,0,0,1-1-2.08,130.13,130.13,0,0,1-16.25-21.56V79.61a8.07,8.07,0,0,1,8.08-8.06H216.84A8.07,8.07,0,0,1,224.92,79.61Z"/><path class="cls-3" d="M226.83,92.41V215.24a3.89,3.89,0,0,1-1,2.62c-.3.33-.6.66-.91,1q-3,3.24-6.22,6.28c-.93.88-1.87,1.74-2.83,2.58A130.1,130.1,0,0,1,39.1,224c-1.11-1.08-2.2-2.17-3.28-3.29h0a3.76,3.76,0,0,1-1-2.08,2.78,2.78,0,0,1,0-.58V92.41a3.89,3.89,0,0,1,3.88-3.89H223a3.78,3.78,0,0,1,2,.54A3.89,3.89,0,0,1,226.83,92.41Z"/><path class="cls-2" d="M49.11,87.3c-6.48,3.22-10.52,6.94-11.2,15.82a13.6,13.6,0,0,0,1.26,6.77l34.14,73.65c3.48,7.06,9.77,10.14,20.69,6.67a15.78,15.78,0,0,0,6-3.52c16.88-15.9,21.83-37.41,37.34-36.77a16.35,16.35,0,0,1,11.77,5.83c13.23,15.78,23.68,19.72,33.53,8.35a2,2,0,0,0,.17-.23L221,111.09a13.82,13.82,0,0,0,2.43-10.93c-1.54-7.46-6.2-10.48-13-12.86Z"/><ellipse class="cls-2" cx="130.8" cy="201.46" rx="16.03" ry="14.63"/><path class="cls-1" d="M64.23,119.45l-.56-1A22.6,22.6,0,0,1,83.25,84.56h1.13A22.61,22.61,0,0,1,104,118.47l-.57,1A22.61,22.61,0,0,1,64.23,119.45Z"/><path class="cls-1" d="M163.92,110.31h0a16.67,16.67,0,0,1,14.44-25h0a16.67,16.67,0,0,1,14.44,25h0A16.68,16.68,0,0,1,163.92,110.31Z"/></g></g></svg>